<svg width="544" height="370" viewBox="0 0 544 370" fill="none" xmlns="http://www.w3.org/2000/svg">
<g clip-path="url(#clip0_76_333)">
<path d="M74.6554 367.883C53.0228 362.313 33.907 349.721 20.3722 332.123C6.83738 314.526 -0.332504 292.943 0.0118493 270.834C0.0976467 265.325 0.683148 259.701 3.02409 254.702C5.36502 249.704 9.71328 245.38 15.1525 244.196C21.0885 242.903 27.3524 245.545 31.7761 249.669C36.1999 253.792 39.1005 259.232 41.7692 264.634C57.8432 297.171 70.0559 332.083 74.6283 368.014L74.6554 367.883Z" fill="#F2F2F2"/>
<path d="M12.4592 245.281L23.7248 270.6L34.9903 295.92C38.5582 303.939 42.1192 311.961 45.8069 319.927C49.4623 327.822 53.2429 335.664 57.2761 343.378C61.3036 351.082 65.584 358.66 70.2302 366.016C70.8088 366.932 71.3931 367.844 71.9831 368.753C72.3913 369.383 73.4119 368.799 73.0008 368.165C68.2654 360.863 63.9021 353.332 59.8098 345.66C55.713 337.981 51.884 330.164 48.1964 322.285C44.4891 314.364 40.9244 306.379 37.3691 298.39C33.6269 289.982 29.8853 281.572 26.1444 273.163L14.8788 247.843L13.4768 244.693C13.1719 244.007 12.1562 244.6 12.4592 245.281Z" fill="white"/>
<path d="M69.9552 368.059C57.2039 370.944 43.8426 369.511 32.0129 363.989C20.1833 358.467 10.5705 349.176 4.71541 337.606C3.2566 334.723 2.02569 331.647 1.87679 328.426C1.7279 325.206 2.80547 321.8 5.30614 319.732C8.03525 317.476 12.0085 317.175 15.4305 318.135C18.8526 319.094 21.8432 321.144 24.703 323.236C41.9282 335.836 57.797 350.701 69.977 368.134L69.9552 368.059Z" fill="#F2F2F2"/>
<path d="M4.20495 321.015L16.9639 331.152L29.7229 341.289C33.7637 344.499 37.8019 347.714 41.8905 350.864C45.9432 353.988 50.046 357.049 54.2454 359.977C58.4388 362.901 62.7292 365.693 67.1491 368.271C67.6995 368.592 68.2519 368.91 68.8063 369.224C69.19 369.442 69.5606 368.866 69.174 368.647C64.7228 366.121 60.402 363.376 56.1837 360.486C51.9608 357.593 47.8396 354.557 43.7748 351.451C39.6883 348.328 35.6582 345.135 31.6322 341.936C27.3944 338.57 23.1568 335.203 18.9195 331.836L6.16051 321.699L4.57273 320.438C4.22744 320.163 3.86179 320.742 4.20495 321.015Z" fill="white"/>
<path d="M539.073 0H196.306C195 0.00143369 193.747 0.515361 192.824 1.42902C191.9 2.34267 191.38 3.58144 191.379 4.87354V234.626C191.38 235.918 191.9 237.157 192.824 238.071C193.747 238.984 195 239.498 196.306 239.5H539.073C540.379 239.498 541.632 238.984 542.555 238.071C543.479 237.157 543.998 235.918 544 234.626V4.87354C543.998 3.58144 543.479 2.34267 542.555 1.42902C541.632 0.515361 540.379 0.00143369 539.073 0ZM542.592 234.626C542.592 235.549 542.221 236.435 541.561 237.087C540.901 237.74 540.006 238.107 539.073 238.107H196.306C195.373 238.107 194.478 237.74 193.818 237.087C193.158 236.435 192.787 235.549 192.787 234.626V4.87354C192.787 3.95041 193.158 3.0652 193.818 2.41244C194.478 1.75969 195.373 1.39281 196.306 1.39244H539.073C540.006 1.39281 540.901 1.75969 541.561 2.41244C542.221 3.0652 542.592 3.95041 542.592 4.87354V234.626Z" fill="#3F3D56"/>
<path d="M543.296 19.522H192.083V20.9144H543.296V19.522Z" fill="#3F3D56"/>
<path d="M204.048 14.6208C206.381 14.6208 208.271 12.7505 208.271 10.4434C208.271 8.13636 206.381 6.26611 204.048 6.26611C201.716 6.26611 199.825 8.13636 199.825 10.4434C199.825 12.7505 201.716 14.6208 204.048 14.6208Z" fill="#3F3D56"/>
<path d="M216.189 14.6208C218.521 14.6208 220.412 12.7505 220.412 10.4434C220.412 8.13636 218.521 6.26611 216.189 6.26611C213.857 6.26611 211.966 8.13636 211.966 10.4434C211.966 12.7505 213.857 14.6208 216.189 14.6208Z" fill="#3F3D56"/>
<path d="M228.33 14.6208C230.663 14.6208 232.553 12.7505 232.553 10.4434C232.553 8.13636 230.663 6.26611 228.33 6.26611C225.998 6.26611 224.107 8.13636 224.107 10.4434C224.107 12.7505 225.998 14.6208 228.33 14.6208Z" fill="#3F3D56"/>
<path d="M277.857 51.8682H218.735C217.429 51.8682 216.176 51.3547 215.252 50.4408C214.328 49.5268 213.809 48.2872 213.809 46.9946C213.809 45.7021 214.328 44.4625 215.252 43.5485C216.176 42.6346 217.429 42.1211 218.735 42.1211H277.857C279.164 42.1211 280.417 42.6346 281.341 43.5485C282.265 44.4625 282.784 45.7021 282.784 46.9946C282.784 48.2872 282.265 49.5268 281.341 50.4408C280.417 51.3547 279.164 51.8682 277.857 51.8682Z" fill="#CCCCCC"/>
<path d="M358.798 75.5401H218.735C217.429 75.5401 216.176 75.0266 215.252 74.1126C214.328 73.1987 213.809 71.9591 213.809 70.6665C213.809 69.374 214.328 68.1343 215.252 67.2204C216.176 66.3064 217.429 65.793 218.735 65.793H358.798C360.105 65.793 361.358 66.3064 362.282 67.2204C363.206 68.1343 363.725 69.374 363.725 70.6665C363.725 71.9591 363.206 73.1987 362.282 74.1126C361.358 75.0266 360.105 75.5401 358.798 75.5401Z" fill="#CCCCCC"/>
<path d="M403.999 84.9551C397.401 94.4705 393.556 105.588 392.877 117.107C392.199 128.626 394.713 140.109 400.149 150.318C405.585 160.527 413.736 169.074 423.723 175.036C433.71 180.999 445.153 184.15 456.817 184.15V128.843L403.999 84.9551Z" fill="#F2C12E"/>
<path d="M456.818 57.438C446.415 57.4314 436.169 59.934 426.965 64.7288C417.761 69.5237 409.878 76.4661 403.999 84.9547L456.818 128.842V57.438Z" fill="#CCCCCC"/>
<path d="M456.817 184.847H456.113V56.7422H456.817C473.991 56.7422 490.461 63.4905 502.604 75.5027C514.748 87.5148 521.57 103.807 521.57 120.794C521.57 137.782 514.748 154.074 502.604 166.086C490.461 178.098 473.991 184.847 456.817 184.847ZM457.521 58.1384V183.451C474.198 183.267 490.129 176.585 501.857 164.855C513.584 153.124 520.162 137.292 520.162 120.794C520.162 104.297 513.584 88.4645 501.857 76.7341C490.129 65.0037 474.198 58.3217 457.521 58.1384Z" fill="#3F3D56"/>
<path d="M259.558 210.955H247.593C246.753 210.954 245.948 210.624 245.355 210.036C244.761 209.449 244.427 208.653 244.426 207.822V173.707C244.427 172.877 244.761 172.08 245.355 171.493C245.948 170.906 246.753 170.575 247.593 170.574H259.558C260.398 170.575 261.203 170.906 261.797 171.493C262.391 172.08 262.725 172.877 262.725 173.707V207.822C262.725 208.653 262.391 209.449 261.797 210.036C261.203 210.624 260.398 210.954 259.558 210.955Z" fill="#CCCCCC"/>
<path d="M294.75 210.955H282.784C281.945 210.954 281.14 210.624 280.546 210.036C279.952 209.449 279.618 208.653 279.617 207.822V157.694C279.618 156.863 279.952 156.067 280.546 155.48C281.14 154.892 281.945 154.562 282.784 154.561H294.75C295.589 154.562 296.394 154.892 296.988 155.48C297.582 156.067 297.916 156.863 297.917 157.694V207.822C297.916 208.653 297.582 209.449 296.988 210.036C296.394 210.624 295.589 210.954 294.75 210.955Z" fill="#FF6584"/>
<path d="M329.942 210.955H317.977C317.137 210.954 316.332 210.624 315.738 210.036C315.145 209.449 314.811 208.653 314.81 207.822V143.77C314.811 142.939 315.145 142.143 315.738 141.555C316.332 140.968 317.137 140.638 317.977 140.637H329.942C330.782 140.638 331.587 140.968 332.181 141.555C332.774 142.143 333.108 142.939 333.109 143.77V207.822C333.108 208.653 332.774 209.449 332.181 210.036C331.587 210.624 330.782 210.954 329.942 210.955Z" fill="#F2C12E"/>
<path d="M259.559 211.303H247.593C246.66 211.302 245.766 210.935 245.106 210.282C244.446 209.629 244.075 208.745 244.074 207.822V131.237C244.075 130.315 244.446 129.43 245.106 128.777C245.766 128.124 246.66 127.757 247.593 127.756H259.559C260.492 127.757 261.386 128.124 262.046 128.777C262.706 129.43 263.077 130.315 263.078 131.237V207.822C263.077 208.745 262.706 209.629 262.046 210.282C261.386 210.935 260.492 211.302 259.559 211.303ZM247.593 129.149C247.034 129.149 246.497 129.37 246.101 129.761C245.705 130.153 245.482 130.684 245.482 131.237V207.822C245.482 208.375 245.705 208.906 246.101 209.298C246.497 209.689 247.034 209.91 247.593 209.91H259.559C260.118 209.91 260.655 209.689 261.051 209.298C261.447 208.906 261.669 208.375 261.67 207.822V131.237C261.669 130.684 261.447 130.153 261.051 129.761C260.655 129.37 260.118 129.149 259.559 129.149H247.593Z" fill="#3F3D56"/>
<path d="M294.75 211.303H282.785C281.852 211.302 280.957 210.935 280.298 210.282C279.638 209.629 279.267 208.745 279.266 207.822V131.237C279.267 130.315 279.638 129.43 280.298 128.777C280.957 128.124 281.852 127.757 282.785 127.756H294.75C295.683 127.757 296.577 128.124 297.237 128.777C297.897 129.43 298.268 130.315 298.269 131.237V207.822C298.268 208.745 297.897 209.629 297.237 210.282C296.577 210.935 295.683 211.302 294.75 211.303ZM282.785 129.149C282.225 129.149 281.688 129.37 281.292 129.761C280.897 130.153 280.674 130.684 280.673 131.237V207.822C280.674 208.375 280.897 208.906 281.292 209.298C281.688 209.689 282.225 209.91 282.785 209.91H294.75C295.31 209.91 295.847 209.689 296.242 209.298C296.638 208.906 296.861 208.375 296.861 207.822V131.237C296.861 130.684 296.638 130.153 296.242 129.761C295.847 129.37 295.31 129.149 294.75 129.149H282.785Z" fill="#3F3D56"/>
<path d="M329.941 211.303H317.976C317.043 211.302 316.149 210.935 315.489 210.282C314.829 209.629 314.458 208.745 314.457 207.822V131.237C314.458 130.315 314.829 129.43 315.489 128.777C316.149 128.124 317.043 127.757 317.976 127.756H329.941C330.874 127.757 331.769 128.124 332.429 128.777C333.088 129.43 333.459 130.315 333.461 131.237V207.822C333.459 208.745 333.088 209.629 332.429 210.282C331.769 210.935 330.874 211.302 329.941 211.303ZM317.976 129.149C317.416 129.149 316.88 129.37 316.484 129.761C316.088 130.153 315.865 130.684 315.865 131.237V207.822C315.865 208.375 316.088 208.906 316.484 209.298C316.88 209.689 317.416 209.91 317.976 209.91H329.941C330.501 209.91 331.038 209.689 331.434 209.298C331.83 208.906 332.052 208.375 332.053 207.822V131.237C332.052 130.684 331.83 130.153 331.434 129.761C331.038 129.37 330.501 129.149 329.941 129.149H317.976Z" fill="#3F3D56"/>
<path d="M79.1328 249.945C79.4063 248.958 79.4577 247.923 79.2833 246.914C79.1089 245.906 78.713 244.947 78.1235 244.106C77.534 243.265 76.7653 242.561 75.8714 242.046C74.9775 241.531 73.9802 241.215 72.9498 241.122L66.8969 216.974L58.0381 226.48L65.1441 247.954C65.101 249.677 65.6981 251.355 66.8225 252.671C67.9468 253.988 69.5202 254.85 71.2445 255.096C72.9688 255.341 74.7242 254.952 76.1781 254.003C77.6319 253.054 78.6833 251.61 79.1328 249.945Z" fill="#FFB8B8"/>
<path d="M62.9046 242.518C62.4939 242.348 62.124 242.095 61.8187 241.775C61.5134 241.455 61.2797 241.075 61.1327 240.659L51.0284 209.902C48.4176 202.514 48.6086 194.439 51.5658 187.18L61.3058 163.262C61.5248 161.953 62.0024 160.7 62.7112 159.574C63.4201 158.449 64.3463 157.472 65.437 156.701C66.5277 155.929 67.7614 155.378 69.0676 155.078C70.3738 154.779 71.7269 154.737 73.0495 154.955C74.3721 155.173 75.6382 155.647 76.7756 156.349C77.9129 157.051 78.8992 157.969 79.6779 159.048C80.4567 160.128 81.0126 161.349 81.314 162.642C81.6154 163.934 81.6563 165.272 81.4344 166.58L67.9965 205.261L72.7002 236.757C72.7628 237.398 72.6249 238.042 72.3051 238.603C71.9854 239.164 71.4993 239.614 70.9125 239.893L65.4868 242.454C64.9048 242.728 64.2521 242.82 63.6157 242.718C63.3715 242.68 63.1328 242.612 62.9046 242.518Z" fill="#2F2E41"/>
<path d="M112.855 360.95L121.484 360.95L125.589 328.027L112.854 328.028L112.855 360.95Z" fill="#FFB8B8"/>
<path d="M138.126 368.875L111.007 368.877L111.006 358.512L127.648 358.511C130.427 358.511 133.092 359.603 135.057 361.547C137.022 363.49 138.126 366.127 138.126 368.875Z" fill="#2F2E41"/>
<path d="M69.9213 360.95L78.5503 360.95L82.6551 328.027L69.9199 328.028L69.9213 360.95Z" fill="#FFB8B8"/>
<path d="M95.1914 368.875L68.0722 368.876L68.0717 358.512L84.7131 358.511C87.492 358.511 90.1571 359.603 92.1222 361.546C94.0872 363.49 95.1913 366.126 95.1914 368.875Z" fill="#2F2E41"/>
<path d="M115.214 226.767L122.799 286.214C123.842 294.387 124.571 302.589 124.988 310.822L127.031 351.251C127.05 351.628 126.992 352.005 126.859 352.359C126.726 352.713 126.522 353.036 126.259 353.309C125.996 353.583 125.68 353.801 125.329 353.949C124.979 354.098 124.601 354.175 124.22 354.175H112.707C112.034 354.175 111.383 353.936 110.872 353.502C110.361 353.068 110.025 352.467 109.924 351.808L99.5704 284.335C99.5205 284.01 99.3558 283.712 99.1054 283.496C98.855 283.279 98.5352 283.157 98.2026 283.152C97.87 283.146 97.5462 283.257 97.2885 283.465C97.0309 283.673 96.856 283.965 96.795 284.288L84.3219 350.371C84.1985 350.965 83.8825 351.503 83.4218 351.903C82.9612 352.303 82.3811 352.544 81.7697 352.588L71.1741 353.253C70.7807 353.282 70.3857 353.228 70.0146 353.096C69.6435 352.964 69.3046 352.756 69.0199 352.486C68.7353 352.216 68.5111 351.889 68.3621 351.528C68.213 351.167 68.1424 350.779 68.1547 350.389L71.5762 242.083L115.214 226.767Z" fill="#2F2E41"/>
<path d="M81.6072 142.092C91.1545 142.092 98.8941 134.436 98.8941 124.992C98.8941 115.548 91.1545 107.893 81.6072 107.893C72.0599 107.893 64.3203 115.548 64.3203 124.992C64.3203 134.436 72.0599 142.092 81.6072 142.092Z" fill="#FFB8B8"/>
<path d="M68.0568 243.476C72.2798 253.223 90.5795 260.185 94.8025 246.261C98.0684 235.497 111.005 230.972 116.713 229.475C117.43 229.286 118.044 228.825 118.421 228.192C118.797 227.558 118.907 226.804 118.726 226.091L102.77 164.093C101.84 160.482 99.9895 157.166 97.3942 154.465C94.7989 151.764 91.546 149.767 87.947 148.665C75.2643 144.78 61.8914 152.779 59.7445 165.736C59.1581 169.369 58.7845 173.033 58.6255 176.709C57.302 204.063 65.2765 237.057 68.0568 243.476Z" fill="#F2C12E"/>
<path d="M125.342 243.458C125.238 242.44 124.91 241.456 124.381 240.577C123.851 239.697 123.134 238.944 122.278 238.368C121.422 237.793 120.449 237.41 119.428 237.247C118.406 237.084 117.361 237.144 116.366 237.424L101.942 217.042L97.1299 229.062L111.564 246.574C112.15 248.197 113.317 249.551 114.845 250.38C116.372 251.208 118.154 251.454 119.852 251.07C121.551 250.685 123.047 249.698 124.059 248.296C125.071 246.893 125.527 245.172 125.342 243.458Z" fill="#FFB8B8"/>
<path d="M107.5 242.298C107.055 242.286 106.618 242.181 106.216 241.991C105.815 241.801 105.459 241.529 105.171 241.194L84.5647 216.084C79.4438 210.119 76.6878 202.516 76.8095 194.691L77.2067 168.908C76.9363 167.609 76.9272 166.27 77.18 164.968C77.4328 163.666 77.9425 162.426 78.6799 161.319C79.4174 160.212 80.3682 159.259 81.4779 158.515C82.5877 157.772 83.8347 157.252 85.1477 156.985C86.4607 156.718 87.814 156.71 89.1302 156.961C90.4464 157.212 91.6997 157.717 92.8186 158.447C93.9374 159.177 94.8999 160.118 95.651 161.216C96.4021 162.314 96.927 163.548 97.1959 164.847L98.7122 205.72L114.547 233.439C114.838 234.015 114.944 234.665 114.849 235.302C114.755 235.939 114.465 236.532 114.018 237.001L109.886 241.319C109.442 241.782 108.867 242.101 108.236 242.232C107.994 242.283 107.747 242.305 107.5 242.298Z" fill="#2F2E41"/>
<path d="M68.486 138.979C68.8583 139.198 69.2764 139.328 69.7079 139.361C70.1394 139.394 70.5728 139.328 70.9745 139.169C71.3762 139.009 71.7354 138.761 72.0243 138.442C72.3132 138.123 72.5241 137.743 72.6405 137.33L72.6502 137.291C72.964 135.994 72.7034 134.638 72.6134 133.307C72.5233 131.976 72.6551 130.513 73.5718 129.534C75.2807 127.709 78.321 128.676 80.7921 128.215C82.2395 127.895 83.5195 127.065 84.3927 125.879C85.2659 124.694 85.6723 123.234 85.536 121.773C85.5008 121.496 85.4456 121.219 85.3837 120.942C85.2291 120.241 85.2411 119.513 85.4186 118.817C85.596 118.121 85.9343 117.475 86.4066 116.93C86.879 116.384 87.4727 115.955 88.1411 115.675C88.8095 115.395 89.5345 115.272 90.259 115.316C92.7563 115.457 95.4519 116.206 97.518 114.376C98.2755 113.654 98.8014 112.728 99.03 111.712C99.2586 110.697 99.1799 109.637 98.8036 108.666C97.6238 105.297 94.2894 103.534 90.9897 102.564C86.9087 101.398 82.6163 101.146 78.4244 101.826C74.2325 102.507 70.2466 104.103 66.7565 106.498C64.6723 107.951 62.7259 109.777 61.8376 112.141C60.9493 114.506 61.3778 117.488 63.3809 119.049C61.8282 120.675 60.7348 122.677 60.2103 124.852C59.6858 127.028 59.7485 129.302 60.3923 131.446C61.3817 134.6 66.1035 137.623 68.486 138.979Z" fill="#2F2E41"/>
<path d="M194.333 370H7.81712C7.63045 370 7.45142 369.927 7.31943 369.796C7.18743 369.665 7.11328 369.488 7.11328 369.304C7.11328 369.119 7.18743 368.942 7.31943 368.811C7.45142 368.681 7.63045 368.607 7.81712 368.607H194.333C194.52 368.607 194.699 368.681 194.831 368.811C194.963 368.942 195.037 369.119 195.037 369.304C195.037 369.488 194.963 369.665 194.831 369.796C194.699 369.927 194.52 370 194.333 370Z" fill="#3F3D56"/>
</g>
<defs>
<clipPath id="clip0_76_333">
<rect width="544" height="370" fill="white"/>
</clipPath>
</defs>
</svg>
