<svg width="512" height="328" viewBox="0 0 512 328" fill="none" xmlns="http://www.w3.org/2000/svg">
<g clip-path="url(#clip0_76_299)">
<path d="M428.696 25.6788H0.476562C1.08139 22.2069 2.26258 18.9223 3.91344 15.9475C9.18624 6.4395 19.2408 0 30.7612 0H398.411C409.924 0 419.986 6.4395 425.252 15.9475C426.902 18.9223 428.091 22.2069 428.696 25.6788Z" fill="#F2F2F2"/>
<path d="M512 326.801C512 327.276 511.623 327.658 511.153 327.658H335.188C334.718 327.658 334.341 327.276 334.341 326.801C334.341 326.571 334.426 326.369 334.569 326.218H398.411C399.77 326.218 401.101 326.124 402.41 325.944H511.153C511.623 325.944 512 326.326 512 326.801Z" fill="#3F3D56"/>
<path d="M314.672 152.085H114.496C112.635 152.085 111.122 150.146 111.122 147.763C111.122 145.38 112.635 143.441 114.496 143.441H314.672C316.532 143.441 318.046 145.38 318.046 147.763C318.046 150.146 316.532 152.085 314.672 152.085Z" fill="#E6E6E6"/>
<path d="M428.696 25.6788C428.091 22.2069 426.903 18.9223 425.252 15.9475C419.986 6.4395 409.924 0 398.411 0H30.7614C19.241 0 9.18646 6.4395 3.91367 15.9475C2.2628 18.9223 1.08161 22.2069 0.476784 25.6788C0.163691 27.4507 0 29.2731 0 31.1386V296.519C0 313.691 13.7975 327.658 30.7614 327.658H398.411C401.926 327.658 405.314 327.053 408.466 325.944C420.506 321.723 429.173 310.126 429.173 296.519V31.1386C429.173 29.2803 429.009 27.4507 428.696 25.6788ZM427.749 296.519C427.749 311.545 416.72 323.97 402.41 325.944C401.101 326.124 399.77 326.217 398.411 326.217H74.4593C34.1201 326.217 1.42315 293.112 1.42315 252.278V31.1386C1.42315 29.2731 1.59392 27.4507 1.92126 25.6788C2.56169 22.1781 3.80695 18.9007 5.55028 15.9475C10.6665 7.26066 20.0451 1.4406 30.7614 1.4406H398.411C409.128 1.4406 418.506 7.26066 423.622 15.9475C425.366 18.9007 426.611 22.1781 427.251 25.6788C427.579 27.4507 427.749 29.2731 427.749 31.1386V296.519Z" fill="#3F3D56"/>
<path d="M409.815 155.642L407.407 146.705L418.243 142.643L419.447 150.767L409.815 155.642Z" fill="#FFB6B6"/>
<path opacity="0.1" d="M409.815 155.642L407.407 146.705L413.788 143.98L411.806 154.517L409.815 155.642Z" fill="black"/>
<path d="M378.095 232.238C376.026 230.991 375.916 227.312 377.852 224.02C378.699 222.578 379.797 221.451 380.938 220.742L382.074 218.863L396.449 192.776C396.449 192.776 402.742 168.173 405.304 165.199C407.866 162.224 411.57 162.925 411.57 162.925L414.855 165.879L403.129 200.725L388.659 221.353L386.719 224.224C386.649 225.577 386.193 227.092 385.346 228.533C383.411 231.826 380.165 233.484 378.095 232.238Z" fill="#FFB6B6"/>
<path d="M409.223 153.089C409.223 153.089 413.795 152.91 416.68 156.506C419.565 160.101 404.452 200.623 404.452 200.623L392.142 200.182L409.223 153.089Z" fill="#F2C12E"/>
<path d="M410.418 148.127C416.624 148.127 421.654 143.034 421.654 136.752C421.654 130.47 416.624 125.377 410.418 125.377C404.212 125.377 399.181 130.47 399.181 136.752C399.181 143.034 404.212 148.127 410.418 148.127Z" fill="#FFB6B6"/>
<path d="M384.131 301.888L376.506 320.981L372.092 316.513L370.486 307.982L376.907 299.857L384.131 301.888Z" fill="#FFB6B6"/>
<path d="M455.565 294.982L463.19 303.919L459.579 311.231L451.552 310.013L447.539 298.638L455.565 294.982Z" fill="#FFB6B6"/>
<path d="M404.798 188.345L403.795 204.797L428.677 200.329L427.071 190.173L404.798 188.345Z" fill="#FFB6B6"/>
<path d="M403.595 205L428.677 196.672C428.677 196.672 437.907 215.359 427.874 227.14C417.841 238.921 384.532 305.951 384.532 305.951L374.499 301.076L388.946 258.421L404.999 219.015L403.595 205Z" fill="#2F2E41"/>
<path d="M427.875 220.234L437.506 262.889L457.572 295.795L447.138 301.888L419.046 262.889L409.815 232.828L427.875 220.234Z" fill="#2F2E41"/>
<path d="M366.874 306.357H359.924C359.924 306.357 351.814 303.107 349.913 306.357C348.012 309.607 358.394 318.824 358.394 318.824C358.394 318.824 372.894 327.075 374.901 326.669C376.907 326.263 377.71 321.388 377.71 321.388L380.118 315.7L376.506 316.919C376.506 316.919 371.69 314.076 372.894 309.201L366.874 306.357Z" fill="#2F2E41"/>
<path d="M461.585 305.138V301.076L466.25 305.138C466.25 305.138 474.026 307.982 468.006 314.075C461.986 320.169 454.361 326.669 454.361 326.669C454.361 326.669 442.322 329.919 441.519 326.262C440.716 322.606 441.519 321.127 441.519 321.127L445.933 318.95L449.946 308.388L456.368 309.2L461.585 305.138Z" fill="#2F2E41"/>
<path d="M413.829 138.987L410.217 138.58L403.595 131.877C403.595 131.877 397.575 135.127 397.575 132.69C397.575 121.315 404.398 121.721 410.016 120.909C415.634 120.096 415.033 119.893 416.838 122.94C417.664 124.334 420.651 125.174 420.651 125.174C420.651 125.174 426.269 117.456 429.079 126.799C431.888 136.143 428.276 164.986 431.085 167.423C433.894 169.861 419.551 172.295 421.104 162.75C422.658 153.205 425.467 138.58 423.861 135.33C422.256 132.081 421.855 132.893 421.855 132.893C423.844 132.071 425.144 146.553 417.643 147.262L417.44 140.205C417.44 140.205 416.236 136.549 413.829 138.987Z" fill="#2F2E41"/>
<path d="M408.812 153.002L420.852 148.127L436.904 196.876L403.876 195.658L400.902 181.108C400.902 181.108 397.999 173.535 400.406 169.067C402.814 164.598 408.812 153.002 408.812 153.002Z" fill="#F2C12E"/>
<path d="M440.141 234.662C437.741 234.871 435.534 231.946 435.21 228.129C435.068 226.458 435.311 224.894 435.83 223.645L435.671 221.447L432.327 191.769C432.327 191.769 426.102 167.493 426.47 163.564C426.838 159.635 427.42 158.592 427.42 158.592L431.79 159.054L442.332 194.286L442.455 219.585L442.532 223.062C443.254 224.203 443.757 225.703 443.899 227.373C444.223 231.19 442.54 234.453 440.141 234.662Z" fill="#FFB6B6"/>
<path d="M419.848 151.986C419.848 151.986 423.46 149.143 427.874 150.361C432.288 151.58 443.347 193.423 443.347 193.423L433.091 200.329L419.848 151.986Z" fill="#F2C12E"/>
<path d="M210.772 222.314H162.63C159.692 222.314 157.302 219.894 157.302 216.92V212.046C157.302 209.072 159.692 206.653 162.63 206.653H210.772C213.71 206.653 216.101 209.072 216.101 212.046V216.92C216.101 219.894 213.71 222.314 210.772 222.314Z" fill="#F2C12E"/>
<path d="M395.782 63.0345H347.64C344.702 63.0345 342.312 60.6147 342.312 57.6406V52.7667C342.312 49.7926 344.702 47.3735 347.64 47.3735H395.782C398.72 47.3735 401.111 49.7926 401.111 52.7667V57.6406C401.111 60.6147 398.72 63.0345 395.782 63.0345Z" fill="#F2C12E"/>
<path d="M282.192 222.674H234.049C230.915 222.674 228.365 220.093 228.365 216.92V212.046C228.365 208.874 230.915 206.293 234.049 206.293H282.192C285.326 206.293 287.876 208.874 287.876 212.046V216.92C287.876 220.093 285.326 222.674 282.192 222.674ZM234.049 207.734C231.7 207.734 229.788 209.668 229.788 212.046V216.92C229.788 219.298 231.7 221.234 234.049 221.234H282.192C284.541 221.234 286.453 219.298 286.453 216.92V212.046C286.453 209.668 284.541 207.734 282.192 207.734H234.049Z" fill="#F2C12E"/>
<path d="M341.245 129.755H87.9238C85.5694 129.755 83.6543 127.816 83.6543 125.433C83.6543 123.05 85.5694 121.111 87.9238 121.111H341.245C343.599 121.111 345.514 123.05 345.514 125.433C345.514 127.816 343.599 129.755 341.245 129.755Z" fill="#E6E6E6"/>
<path d="M71.7913 59.5259H39.7704C37.4161 59.5259 35.501 57.5873 35.501 55.2041C35.501 52.821 37.4161 50.8823 39.7704 50.8823H71.7913C74.1456 50.8823 76.0608 52.821 76.0608 55.2041C76.0608 57.5873 74.1456 59.5259 71.7913 59.5259Z" fill="#E6E6E6"/>
<path d="M263.204 59.5259H231.184C228.829 59.5259 226.914 57.5873 226.914 55.2041C226.914 52.821 228.829 50.8823 231.184 50.8823H263.204C265.559 50.8823 267.474 52.821 267.474 55.2041C267.474 57.5873 265.559 59.5259 263.204 59.5259Z" fill="#E6E6E6"/>
<path d="M323.689 59.5259H291.668C289.314 59.5259 287.398 57.5873 287.398 55.2041C287.398 52.821 289.314 50.8823 291.668 50.8823H323.689C326.043 50.8823 327.958 52.821 327.958 55.2041C327.958 57.5873 326.043 59.5259 323.689 59.5259Z" fill="#E6E6E6"/>
<path d="M285.03 174.414H144.138C141.783 174.414 139.868 172.475 139.868 170.092C139.868 167.709 141.783 165.77 144.138 165.77H285.03C287.384 165.77 289.299 167.709 289.299 170.092C289.299 172.475 287.384 174.414 285.03 174.414Z" fill="#E6E6E6"/>
<path d="M291.169 268.958H137.999C136.575 268.958 135.417 267.786 135.417 266.345C135.417 264.904 136.575 263.731 137.999 263.731H291.169C292.593 263.731 293.751 264.904 293.751 266.345C293.751 267.786 292.593 268.958 291.169 268.958Z" fill="#E6E6E6"/>
<path d="M292.595 15.4114H139.424C138.001 15.4114 136.843 14.2392 136.843 12.7982C136.843 11.3572 138.001 10.1851 139.424 10.1851H292.595C294.019 10.1851 295.177 11.3572 295.177 12.7982C295.177 14.2392 294.019 15.4114 292.595 15.4114Z" fill="white"/>
</g>
<defs>
<clipPath id="clip0_76_299">
<rect width="512" height="328" fill="white"/>
</clipPath>
</defs>
</svg>
